<svg width="32" height="31" viewBox="0 0 32 31" fill="none" xmlns="http://www.w3.org/2000/svg">
<path fill-rule="evenodd" clip-rule="evenodd" d="M16.0094 2.51611C17.6671 2.51611 19.3085 2.8426 20.84 3.47696C22.3715 4.11132 23.7631 5.04112 24.9352 6.21326C26.1074 7.38541 27.0372 8.77696 27.6715 10.3084C28.3059 11.8399 28.6324 13.4814 28.6324 15.139C28.6324 22.1105 22.9809 27.762 16.0094 27.762C9.03799 27.762 3.38647 22.1105 3.38647 15.139C3.38647 8.16763 9.03799 2.51611 16.0094 2.51611ZM17.2717 16.4014H14.7471C11.6221 16.4014 8.93911 18.2941 7.78192 20.9958C9.61288 23.5633 12.6156 25.2374 16.0094 25.2374C19.4032 25.2374 22.4059 23.5633 24.2369 20.9956C23.0798 18.2941 20.3968 16.4014 17.2717 16.4014ZM16.0094 6.303C13.918 6.303 12.2225 7.99846 12.2225 10.0899C12.2225 12.1813 13.918 13.8768 16.0094 13.8768C18.1008 13.8768 19.7963 12.1813 19.7963 10.0899C19.7963 7.99846 18.1009 6.303 16.0094 6.303Z" fill="#0D4D43"/>
</svg>
